# xmcd
#
# Track frame offsets:
#	150
#	13020
#	24092
#	34985
#	54752
#	65252
#	79280
#	89027
#	111560
#	129282
#	146652
#	156007
#	167867
#	177587
#	189407
#	202372
#	221787
#	234624
#	244394
#
# Disc length: 3591
#
# Revision: 3
# Processed by: cddbd v1.5.1PL0 Copyright (c) Steve Scherf et al.
# Submitted via: DiscPlay 4.0.4
# Normalized: r1:TDELIM( - ),TSWAP
#
DISCID=190e0513
DTITLE=Various Artist - The Best Of Blues - Vol. 1
DYEAR=1900
DGENRE=
TTITLE0=T. Bone Walker - Stormy Monday Blues
TTITLE1=Bo Diddley - Diddly Wah Diddy
TTITLE2=Muddy Waters - Key to the Highway
TTITLE3=Howlin' Wolf - Wang Dang Doodle
TTITLE4=Canned Heat - Dimpled
TTITLE5=Bo Diddley - You Can't judge a book for a cover
TTITLE6=John Mayall - I'm your witch doctor
TTITLE7=Sonny Boy Williamson and The Animals - Boom Boom
TTITLE8=Muddy Waters - Mannish Boy
TTITLE9=Howlin' Boy - Red Rooster
TTITLE10=Canned Heat - Rollin' and Tumblin'
TTITLE11=Allstar and Jeff Beck - Steelin '
TTITLE12=Eric Clapton - Tribute to Elmore
TTITLE13=Yardbirds - I'm a Man
TTITLE14=Fleetwood Mac - Black Magic Woman
TTITLE15=Yardbirds - New York City
TTITLE16=Muddy Waters - Hoochie Coochie Man
TTITLE17=Chuck Berry - Worried Life blues
TTITLE18=Scremin' Jay Hawkins - Constipation blues
EXTD=
EXTT0=
EXTT1=
EXTT2=
EXTT3=
EXTT4=
EXTT5=
EXTT6=
EXTT7=
EXTT8=
EXTT9=
EXTT10=
EXTT11=
EXTT12=
EXTT13=
EXTT14=
EXTT15=
EXTT16=
EXTT17=
EXTT18=
PLAYORDER=
